<svg width="153" height="92" viewBox="0 0 153 92" fill="none" xmlns="http://www.w3.org/2000/svg">
<path d="M123.553 15.8828L112.31 4.61961C109.821 2.14887 106.459 0.762668 102.956 0.762695H49.3827C45.8867 0.762695 42.5089 2.15876 40.0287 4.61961L28.785 15.8828H0.911865V76.3866H16.0295C20.1868 76.3866 23.541 73.0266 23.5647 68.8858H25.7142L45.6978 86.9636C52.9967 92.9027 63.1303 93.0447 70.6418 87.8627C73.5945 90.4182 76.7834 91.625 80.3502 91.625C84.6492 91.625 88.6885 89.874 91.8773 85.9461C97.0976 88.0047 103.263 86.5613 106.995 81.9709L113.184 74.328C114.507 72.6954 115.333 70.826 115.758 68.8858H129.435C129.459 73.0266 132.837 76.3866 136.97 76.3866H152.088V15.8828H123.553ZM12.2501 68.8148C10.1714 68.8148 8.47067 67.1111 8.47067 65.0288C8.47067 62.9466 10.1714 61.2429 12.2501 61.2429C14.3287 61.2429 16.0295 62.9466 16.0295 65.0288C16.0295 67.1348 14.3287 68.8148 12.2501 68.8148ZM104.373 67.1821L98.2078 74.8013C97.5464 75.6058 96.3654 75.7478 95.5386 75.0852L89.8932 70.4948L82.8068 79.1314C81.3895 80.8588 79.2636 80.2672 78.555 79.6993L69.8623 72.2458L66.1774 76.7889C62.8941 80.8351 56.9179 81.4503 53.1149 78.3506L30.1314 57.528H23.5883V27.2169H33.4856L48.0599 12.641C48.5323 12.4518 48.9339 12.2861 49.4063 12.0968H62.7996L53.6581 20.4969C46.7135 26.8619 46.3119 37.6045 52.6188 44.4665C56.1147 48.2998 67.075 54.2153 76.5944 45.5076L78.5313 43.733L104.09 64.5083C104.893 65.1708 105.011 66.3776 104.373 67.1821ZM129.412 57.528H113.066C112.522 56.8654 111.908 56.2502 111.247 55.706L86.9877 35.9718L89.9404 33.2744C91.4758 31.8546 91.5939 29.4648 90.1766 27.9267L87.6019 25.1583C86.1846 23.6202 83.7989 23.5256 82.2635 24.9217L69.2246 36.8947C66.9805 38.9533 63.1539 39.1189 61.0516 36.8947C58.8548 34.5521 59.0438 30.9555 61.3351 28.8732L76.8306 14.6523C78.5786 13.0433 80.8462 12.1678 83.2083 12.1678L102.979 12.1205C103.475 12.1205 103.948 12.3098 104.279 12.6647L118.853 27.2405H129.412V57.528ZM140.75 68.8148C138.671 68.8148 136.97 67.1111 136.97 65.0288C136.97 62.9466 138.671 61.2429 140.75 61.2429C142.828 61.2429 144.529 62.9466 144.529 65.0288C144.529 67.1348 142.828 68.8148 140.75 68.8148Z" fill="#D9D9D9"/>
</svg>
