<svg width="110" height="110" viewBox="0 0 110 110" fill="none" xmlns="http://www.w3.org/2000/svg">
<path d="M55.1731 55.4019C51.4003 55.4019 48.3523 58.45 48.3523 62.2228C48.3523 65.9956 51.4003 69.0436 55.1731 69.0436C58.9459 69.0436 61.994 65.9956 61.994 62.2228C61.994 58.45 58.9459 55.4019 55.1731 55.4019ZM96.0983 0.834961H14.2479C6.72367 0.834961 0.606201 6.95243 0.606201 14.4767V75.8645C0.606201 83.3888 6.72367 89.5062 14.2479 89.5062H34.7105V107.411C34.7105 108.924 35.9468 109.969 37.2684 109.969C37.7799 109.969 38.3128 109.82 38.7817 109.457L65.4044 89.5062H96.0983C103.623 89.5062 109.74 83.3888 109.74 75.8645V14.4767C109.74 6.95243 103.623 0.834961 96.0983 0.834961ZM99.5088 75.8645C99.5088 77.7402 97.9741 79.2749 96.0983 79.2749H61.994L59.2657 81.3212L44.9418 92.064V79.2749H14.2479C12.3722 79.2749 10.8375 77.7402 10.8375 75.8645V14.4767C10.8375 12.601 12.3722 11.0663 14.2479 11.0663H96.0983C97.9741 11.0663 99.5088 12.601 99.5088 14.4767V75.8645ZM61.2906 21.2976H49.0557C46.9241 21.2976 45.3042 23.2372 45.7092 25.3261L49.5459 45.7887C49.8443 47.4087 51.2511 48.581 52.8924 48.581H57.4539C59.0951 48.581 60.5019 47.4087 60.8003 45.7887L64.6371 25.3261C65.0421 23.2372 63.4221 21.2976 61.2906 21.2976Z" fill="#D9D9D9"/>
</svg>
