<svg width="96" height="125" viewBox="0 0 96 125" fill="none" xmlns="http://www.w3.org/2000/svg">
<g clip-path="url(#clip0_58_12018)" filter="url(#filter0_d_58_12018)">
<path d="M68.063 54.5867H42.5985C41.5981 54.5867 40.7796 55.4034 40.7796 56.4016V60.0312C40.7796 61.0294 41.5981 61.8461 42.5985 61.8461H68.063C69.0634 61.8461 69.8819 61.0294 69.8819 60.0312V56.4016C69.8819 55.4034 69.0634 54.5867 68.063 54.5867ZM68.063 76.3648H42.5985C41.5981 76.3648 40.7796 77.1815 40.7796 78.1796V81.8093C40.7796 82.8074 41.5981 83.6241 42.5985 83.6241H68.063C69.0634 83.6241 69.8819 82.8074 69.8819 81.8093V78.1796C69.8819 77.1815 69.0634 76.3648 68.063 76.3648ZM29.8662 52.7719C26.8423 52.7719 24.4095 55.1992 24.4095 58.2164C24.4095 61.2336 26.8423 63.6609 29.8662 63.6609C32.8901 63.6609 35.3229 61.2336 35.3229 58.2164C35.3229 55.1992 32.8901 52.7719 29.8662 52.7719ZM29.8662 74.5499C26.8423 74.5499 24.4095 76.9773 24.4095 79.9945C24.4095 83.0116 26.8423 85.439 29.8662 85.439C32.8901 85.439 35.3229 83.0116 35.3229 79.9945C35.3229 76.9773 32.8901 74.5499 29.8662 74.5499ZM80.7953 14.6603H62.6063C62.6063 6.65233 56.081 0.141602 48.0552 0.141602C40.0293 0.141602 33.504 6.65233 33.504 14.6603H15.315C9.2899 14.6603 4.40161 19.5377 4.40161 25.5493V105.402C4.40161 111.414 9.2899 116.291 15.315 116.291H80.7953C86.8204 116.291 91.7087 111.414 91.7087 105.402V25.5493C91.7087 19.5377 86.8204 14.6603 80.7953 14.6603ZM48.0552 11.0306C50.0559 11.0306 51.693 12.664 51.693 14.6603C51.693 16.6566 50.0559 18.29 48.0552 18.29C46.0544 18.29 44.4174 16.6566 44.4174 14.6603C44.4174 12.664 46.0544 11.0306 48.0552 11.0306ZM80.7953 103.587C80.7953 104.586 79.9768 105.402 78.9764 105.402H17.1339C16.1335 105.402 15.315 104.586 15.315 103.587V27.3642C15.315 26.366 16.1335 25.5493 17.1339 25.5493H26.2284V32.8087C26.2284 34.805 27.8654 36.4384 29.8662 36.4384H66.2441C68.2449 36.4384 69.8819 34.805 69.8819 32.8087V25.5493H78.9764C79.9768 25.5493 80.7953 26.366 80.7953 27.3642V103.587Z" fill="#D9D9D9"/>
</g>
<defs>
<filter id="filter0_d_58_12018" x="0.401611" y="0.141602" width="95.3071" height="124.149" filterUnits="userSpaceOnUse" color-interpolation-filters="sRGB">
<feFlood flood-opacity="0" result="BackgroundImageFix"/>
<feColorMatrix in="SourceAlpha" type="matrix" values="0 0 0 0 0 0 0 0 0 0 0 0 0 0 0 0 0 0 127 0" result="hardAlpha"/>
<feOffset dy="4"/>
<feGaussianBlur stdDeviation="2"/>
<feComposite in2="hardAlpha" operator="out"/>
<feColorMatrix type="matrix" values="0 0 0 0 0 0 0 0 0 0 0 0 0 0 0 0 0 0 0.25 0"/>
<feBlend mode="normal" in2="BackgroundImageFix" result="effect1_dropShadow_58_12018"/>
<feBlend mode="normal" in="SourceGraphic" in2="effect1_dropShadow_58_12018" result="shape"/>
</filter>
<clipPath id="clip0_58_12018">
<rect width="87.3071" height="116.15" fill="white" transform="translate(4.40161 0.141602)"/>
</clipPath>
</defs>
</svg>
