<svg width="106" height="106" viewBox="0 0 106 106" fill="none" xmlns="http://www.w3.org/2000/svg">
<path d="M52.8893 2.39355C24.9658 2.39355 2.34155 25.0178 2.34155 52.9413C2.34155 80.8649 24.9658 103.489 52.8893 103.489C80.8129 103.489 103.437 80.8649 103.437 52.9413C103.437 25.0178 80.8129 2.39355 52.8893 2.39355ZM52.8893 93.7056C30.367 93.7056 12.125 75.4636 12.125 52.9413C12.125 30.419 30.367 12.177 52.8893 12.177C75.4116 12.177 93.6536 30.419 93.6536 52.9413C93.6536 75.4636 75.4116 93.7056 52.8893 93.7056ZM65.4855 72.4267L48.181 59.8509C47.5492 59.3821 47.1823 58.6483 47.1823 57.8738V24.4063C47.1823 23.0611 48.2829 21.9604 49.6282 21.9604H56.1505C57.4957 21.9604 58.5963 23.0611 58.5963 24.4063V53.2878L72.2116 63.1935C73.3122 63.9884 73.5364 65.5171 72.7415 66.6177L68.9097 71.8967C68.1148 72.977 66.5861 73.2216 65.4855 72.4267Z" fill="#D9D9D9"/>
</svg>
