<svg width="72" height="81" viewBox="0 0 72 81" fill="none" xmlns="http://www.w3.org/2000/svg">
<path d="M51.4286 55.6875H50.6732C48.7205 55.6875 46.8161 56.1463 44.9679 56.7633C39.1505 58.706 32.8447 58.706 27.0273 56.7633C25.1807 56.1463 23.2827 55.6907 21.3332 55.6907H20.5714C15.1161 55.6907 9.88417 57.8237 6.02637 61.6206C2.16857 65.4176 0.000852395 70.5674 0 75.9375C0 77.2802 0.541835 78.5678 1.50631 79.5172C2.47078 80.4666 3.77889 81 5.14286 81H66.8571C68.2211 81 69.5292 80.4666 70.4937 79.5172C71.4582 78.5678 72 77.2802 72 75.9375C72 70.5669 69.8327 65.4162 65.9748 61.6186C62.1169 57.821 56.8845 55.6875 51.4286 55.6875ZM7.97304 73.4062C8.56969 70.5497 10.1485 67.983 12.4434 66.1387C14.7382 64.2943 17.6089 63.2852 20.5714 63.2812H21.3332C22.1561 63.2812 23.1798 63.4948 24.5475 63.952C31.9696 66.4294 40.0143 66.4294 47.4364 63.952C48.8186 63.4917 49.8471 63.2765 50.6684 63.2765H51.4286C54.3911 63.2804 57.2618 64.2896 59.5566 66.1339C61.8515 67.9783 63.4303 70.545 64.027 73.4015L7.97304 73.4062ZM8.89232 35.4375C9.88663 35.4367 10.84 35.0476 11.5432 34.3556C12.2465 33.6637 12.6421 32.7254 12.6434 31.7466V30.375C12.6434 17.6966 23.1204 7.38334 36 7.38334C48.8796 7.38334 59.3566 17.6966 59.3566 30.375V32.3794C59.3532 35.2592 58.1895 38.0201 56.1209 40.0565C54.0522 42.0928 51.2475 43.2383 48.322 43.2417H44.5452C44.2481 41.8703 43.4823 40.6408 42.3756 39.7581C41.2689 38.8754 39.8882 38.3929 38.4637 38.3912H33.5363C32.7118 38.3781 31.893 38.5267 31.1274 38.8282C30.3619 39.1298 29.665 39.5783 29.0772 40.1476C28.4895 40.7169 28.0228 41.3956 27.7042 42.1442C27.3856 42.8929 27.2215 43.6964 27.2215 44.5081C27.2215 45.3197 27.3856 46.1233 27.7042 46.8719C28.0228 47.6206 28.4895 48.2993 29.0772 48.8686C29.665 49.4379 30.3619 49.8864 31.1274 50.1879C31.893 50.4895 32.7118 50.6381 33.5363 50.625H48.322C53.2361 50.6196 57.9474 48.6955 61.4222 45.275C64.897 41.8545 66.8516 37.2168 66.8571 32.3794V30.375C66.8571 13.626 53.0148 0 36 0C18.9852 0 5.14286 13.626 5.14286 30.375V31.7466C5.14413 32.7251 5.53957 33.6632 6.24246 34.3551C6.94534 35.047 7.89829 35.4362 8.89232 35.4375ZM36 20.25C38.727 20.2529 41.3415 21.3206 43.2698 23.2188C45.1981 25.117 46.2827 27.6906 46.2857 30.375C46.275 32.1413 45.7893 33.8733 44.8779 35.3948C46.0029 36.1637 47.033 37.0638 47.8173 38.1792H48.322C50.3614 38.1792 52.0746 37.0907 53.1337 35.5356C53.6448 33.8919 54 32.1833 54 30.375C54 25.6757 52.1036 21.1689 48.7279 17.846C45.3523 14.523 40.7739 12.6562 36 12.6562C31.2261 12.6562 26.6477 14.523 23.2721 17.846C19.8964 21.1689 18 25.6757 18 30.375C18 34.8363 19.7325 38.8642 22.5 41.9792C23.1389 39.2789 24.7734 36.9083 27.0868 35.3268C26.1995 33.8218 25.7264 32.115 25.7143 30.375C25.7173 27.6906 26.8019 25.117 28.7302 23.2188C30.6585 21.3206 33.273 20.2529 36 20.25Z" fill="white"/>
</svg>
