<svg width="15" height="15" viewBox="0 0 15 15" fill="none" xmlns="http://www.w3.org/2000/svg">
<path d="M14.2183 6.52514H8.89235V1.19919C8.89235 0.87224 8.62754 0.607422 8.30058 0.607422H7.11704C6.79008 0.607422 6.52527 0.87224 6.52527 1.19919V6.52514H1.19932C0.872362 6.52514 0.607544 6.78996 0.607544 7.11692V8.30046C0.607544 8.62741 0.872362 8.89223 1.19932 8.89223H6.52527V14.2182C6.52527 14.5451 6.79008 14.81 7.11704 14.81H8.30058C8.62754 14.81 8.89235 14.5451 8.89235 14.2182V8.89223H14.2183C14.5453 8.89223 14.8101 8.62741 14.8101 8.30046V7.11692C14.8101 6.78996 14.5453 6.52514 14.2183 6.52514Z" fill="#334155"/>
</svg>
