<svg width="109" height="96" viewBox="0 0 109 96" fill="none" xmlns="http://www.w3.org/2000/svg">
<path d="M105.854 20.1598H29.887C28.4886 20.1598 27.3548 19.0192 27.3548 17.6124V10.8194C27.3548 9.41263 28.4886 8.27204 29.887 8.27204H105.854C107.252 8.27204 108.386 9.41263 108.386 10.8194V17.6124C108.386 19.0192 107.252 20.1598 105.854 20.1598ZM108.386 51.5776V44.7846C108.386 43.3778 107.252 42.2372 105.854 42.2372H29.887C28.4886 42.2372 27.3548 43.3778 27.3548 44.7846V51.5776C27.3548 52.9844 28.4886 54.125 29.887 54.125H105.854C107.252 54.125 108.386 52.9844 108.386 51.5776ZM108.386 85.5427V78.7497C108.386 77.3429 107.252 76.2023 105.854 76.2023H29.887C28.4886 76.2023 27.3548 77.3429 27.3548 78.7497V85.5427C27.3548 86.9495 28.4886 88.0901 29.887 88.0901H105.854C107.252 88.0901 108.386 86.9495 108.386 85.5427ZM1.03303 25.3455C1.03303 26.9327 1.85959 27.802 3.47514 27.802H17.6752C19.2905 27.802 20.1171 26.9327 20.1171 25.3455V23.4559C20.1171 21.8687 19.2905 20.9994 17.6752 20.9994H14.4067V3.08641C14.4067 1.46118 13.543 0.629883 11.9275 0.629883H9.37289C8.0956 0.629883 7.26904 0.969958 6.33001 1.83925L1.7469 6.07173C0.582502 7.16775 0.507169 8.4149 1.63422 9.5487L2.79862 10.8714C3.88789 12.043 5.1654 12.0052 6.10443 11.0981C6.33001 10.8714 6.70541 10.3046 6.70541 10.3046H6.78053C6.78053 10.3046 6.66785 11.4382 6.66785 12.5342V20.9996H3.47514C1.85959 20.9996 1.03303 21.8687 1.03303 23.4561V25.3455ZM0.811035 59.3509C0.811035 60.912 1.88259 61.7671 3.36077 61.7671H17.6971C19.2859 61.7671 20.1359 60.912 20.1359 59.3509V57.4924C20.1359 55.9311 19.2859 55.0762 17.6971 55.0762H9.45709C9.86351 52.8457 19.7292 51.136 19.7292 42.9954C19.7292 36.825 14.4456 34.5948 10.344 34.5948C5.83623 34.5948 3.21263 36.7136 1.80852 38.5721C0.884681 39.7617 1.18053 40.8769 2.4 41.8432L4.21033 43.2928C5.39288 44.2594 6.53828 43.8134 7.61004 42.7725C8.23804 42.1779 8.94009 41.9548 9.60522 41.9548C10.3071 41.9548 11.5635 42.2894 11.5635 43.8134C11.5635 46.5268 0.811035 48.4598 0.811035 58.4958V59.3509ZM2.09171 93.7251C3.71739 94.7286 6.15592 95.7322 9.66642 95.7322C16.8716 95.7322 19.9014 90.9001 19.9014 86.3651C19.9014 83.3171 17.9801 80.0461 13.8418 78.9681L17.5366 74.6934C18.3127 73.7642 18.6083 72.9092 18.6083 71.6826V70.9763C18.6083 69.415 17.7953 68.5601 16.2065 68.5601H3.86531C2.27635 68.5601 1.46329 69.3779 1.46329 70.9763V72.8349C1.46329 74.396 2.27635 75.2511 3.86531 75.2511H6.59948C8.37309 75.2511 9.26 75.0279 9.26 75.0279V75.1022C9.26 75.1022 8.11459 76.1802 6.67355 77.9644L5.491 79.4513C4.64102 80.5292 4.38252 81.6072 4.89994 82.6109L5.12151 83.0197C5.74992 84.2465 6.45177 84.6925 7.70817 84.6925H8.70586C10.8857 84.6925 12.0682 85.213 12.0682 86.6256C12.0682 87.6292 11.1813 88.3726 9.03843 88.3726C8.04052 88.3726 7.04283 88.1495 6.00842 87.7035C4.64123 86.8858 3.53275 86.9601 2.71991 88.3726L1.53757 90.3426C0.761446 91.6435 0.87223 92.8329 2.09171 93.7251Z" fill="#D9D9D9"/>
</svg>
