<svg width="114" height="131" viewBox="0 0 114 131" fill="none" xmlns="http://www.w3.org/2000/svg">
<path d="M110.81 41.4932C112.485 41.4932 113.855 40.1215 113.855 38.445V28.2844C113.855 26.6079 112.485 25.2362 110.81 25.2362H105.734V13.0434C105.734 6.31194 100.277 0.850586 93.5514 0.850586H12.3357C5.61 0.850586 0.15332 6.31194 0.15332 13.0434V118.714C0.15332 125.446 5.61 130.907 12.3357 130.907H93.5514C100.277 130.907 105.734 125.446 105.734 118.714V106.521H110.81C112.485 106.521 113.855 105.15 113.855 103.473V93.3126C113.855 91.6361 112.485 90.2644 110.81 90.2644H105.734V74.0073H110.81C112.485 74.0073 113.855 72.6356 113.855 70.9591V60.7985C113.855 59.122 112.485 57.7503 110.81 57.7503H105.734V41.4932H110.81ZM93.5514 118.714H12.3357V13.0434H93.5514V118.714ZM52.9435 65.8788C61.9027 65.8788 69.1867 58.5885 69.1867 49.6217C69.1867 40.655 61.9027 33.3647 52.9435 33.3647C43.9844 33.3647 36.7004 40.655 36.7004 49.6217C36.7004 58.5885 43.9844 65.8788 52.9435 65.8788ZM30.2031 98.3929H75.684C78.8311 98.3929 81.3691 96.2084 81.3691 93.5158V88.6387C81.3691 80.561 73.7297 74.0073 64.3138 74.0073C61.5727 74.0073 59.5677 76.0395 52.9435 76.0395C46.1163 76.0395 44.4667 74.0073 41.5733 74.0073C32.1574 74.0073 24.518 80.561 24.518 88.6387V93.5158C24.518 96.2084 27.056 98.3929 30.2031 98.3929Z" fill="#D9D9D9"/>
</svg>
